Coordinates
version=1
nRows=9
nColumns=36
inDegrees=yes

Units are S.I. units (second, meters, Newtons, ...)
If the header above contains a line with 'inDegrees', this indicates whether rotational values are in degrees (yes) or radians (no).

endheader
time	pelvis_tilt	pelvis_list	pelvis_rotation	pelvis_tx	pelvis_ty	pelvis_tz	hip_flexion_r	hip_adduction_r	hip_rotation_r	knee_angle_r	knee_angle_r_beta	ankle_angle_r	subtalar_angle_r	mtp_angle_r	hip_flexion_l	hip_adduction_l	hip_rotation_l	knee_angle_l	knee_angle_l_beta	ankle_angle_l	subtalar_angle_l	mtp_angle_l	lumbar_extension	lumbar_bending	lumbar_rotation	arm_flex_r	arm_add_r	arm_rot_r	elbow_flex_r	pro_sup_r	arm_flex_l	arm_add_l	arm_rot_l	elbow_flex_l	pro_sup_l
      4.95000000	     12.25979406	      7.85495273	      3.35107003	      0.54136447	      0.94496508	     -0.09845773	    -28.90380702	    -15.10515482	    -12.25032782	      1.38056007	      0.02409532	     13.02156091	     -5.18095513	     -7.49999987	    -28.71023549	      2.67063505	     -1.13673358	      0.08851899	      0.00154495	      9.51390231	     10.63368388	     -7.49999987	    -35.97926660	      4.71538295	     -9.30221013	     54.72439969	    -23.73732594	     78.61786502	    125.43130127	    102.66539575	     34.77836558	     -4.38987201	     38.60690920	     99.10879129	     95.69773716
      4.96666670	     11.78596892	      8.20909570	      3.42112089	      0.52862371	      0.94161697	     -0.10465078	    -28.96830499	    -15.28476146	    -12.10599087	      1.12576917	      0.01964838	     12.85825227	     -6.63769504	     -7.49999987	    -28.54386423	      3.01799997	     -1.29133566	      0.08579779	      0.00149745	     10.03562303	     11.15458859	     -7.49999987	    -36.46920174	      4.79611445	     -9.72108436	     56.49471627	    -23.07369905	     79.01524304	    124.53234356	    102.12345633	     36.63340759	     -4.84172048	     39.09821616	     99.52068977	     95.55891875
      4.98333330	     11.32305017	      8.59779465	      3.56522386	      0.52702802	      0.94145475	     -0.10521122	    -28.90019602	    -15.53115338	    -11.92835285	      0.95269718	      0.01662770	     12.71130006	     -8.32380920	     -7.49999987	    -28.22720249	      3.38847065	     -1.32012516	      0.08417335	      0.00146910	     10.42346725	     11.42391997	     -7.49999987	    -36.84789451	      4.76197910	    -10.28262956	     57.73862735	    -22.86052183	     79.60688579	    125.41139961	    101.66918236	     38.03330144	     -5.53094575	     39.53197223	    100.62154980	     95.52353845
      5.00000000	     10.93471722	      8.75439935	      3.43926783	      0.53105250	      0.94010136	     -0.10571318	    -28.64256497	    -15.69274942	    -11.69290955	      0.94960010	      0.01657365	     12.74336997	     -9.26213169	     -7.49999987	    -27.99110192	      3.64650668	     -1.52163158	      0.08297561	      0.00144820	     10.85008934	     11.64407954	     -7.49999987	    -36.58010325	      4.77661713	    -10.63144427	     57.74877554	    -22.56913886	     79.96831327	    125.34915438	    101.58824733	     37.60508068	     -5.80552701	     39.20046473	    101.83027212	     97.81779053
      5.01666670	     10.69644557	      8.84947360	      3.33696003	      0.52977555	      0.93975667	     -0.10643236	    -28.43647543	    -15.79267091	    -11.51613838	      0.97613960	      0.01703685	     12.79101673	     -9.95490071	     -7.49999987	    -27.84044537	      3.82436037	     -1.59126874	      0.08278922	      0.00144494	     11.23415092	     11.57659685	     -7.49999987	    -36.24039300	      4.94701172	    -11.03979147	     57.93285128	    -22.20150325	     80.63767158	    124.68764709	    101.48809192	     37.63869838	     -5.34174451	     38.31181457	    101.88945005	     96.76707185
      5.03333330	     10.48212854	      8.98284905	      3.20365741	      0.52715824	      0.93738432	     -0.11460440	    -28.18664189	    -16.04488818	    -11.18467141	      1.02045658	      0.01781033	     12.49369233	    -11.04417685	     -7.49999987	    -27.68055823	      4.11253022	     -1.71062248	      0.08310567	      0.00145047	     11.66667246	     11.55083587	     -7.49999987	    -35.98604993	      5.27657085	    -11.39642110	     58.71512090	    -22.24402061	     81.41036635	    125.15001944	    103.51338023	     38.22829743	     -4.37863643	     37.28590238	    101.14324209	     98.10029117
      5.05000000	     10.44779058	      9.05087028	      3.07381084	      0.52062203	      0.93978625	     -0.10860986	    -27.94683814	    -16.17365322	    -11.10324847	      1.22901878	      0.02145042	     12.59131164	    -11.51038297	     -7.49999987	    -27.58689833	      4.26905710	     -1.77484750	      0.08450551	      0.00147490	     11.96213220	     11.34126000	     -7.49999987	    -35.71502904	      5.34382920	    -11.44658874	     58.92768510	    -22.00697855	     81.81311987	    125.89503847	    103.41464549	     36.96907453	     -4.36651004	     36.12112330	    101.09957503	     97.34290851
      5.06666670	     10.49286996	      9.22517329	      3.03813051	      0.52360132	      0.93909125	     -0.10884262	    -27.95549113	    -16.33508466	    -10.80273161	      1.24826493	      0.02178633	     12.31687707	    -12.54511408	     -7.49999987	    -27.57672381	      4.48152558	     -1.72967470	      0.08464378	      0.00147731	     12.19447732	     11.06179247	     -7.49999987	    -35.46793387	      5.17109948	    -11.86109988	     58.56327861	    -21.71593487	     82.93250061	    127.97833786	    103.09573716	     34.72946084	     -5.12184712	     35.05170912	    102.69077271	     96.61738150
      5.08333330	     10.73749689	      9.35280001	      2.97372668	      0.51953572	      0.94144982	     -0.10812844	    -28.09905593	    -16.43025240	    -10.55821612	      1.30236308	      0.02273052	     12.33399222	    -13.11010501	     -7.49999987	    -27.72464176	      4.62927813	     -1.81813265	      0.08479581	      0.00147997	     12.50764916	     11.00991351	     -7.49999987	    -35.55923420	      4.85136438	    -12.41463413	     57.90275897	    -20.95240407	     84.36264191	    129.96363969	    105.52522898	     32.59102269	     -5.94619491	     35.35958630	    106.50114952	     98.94193411
